PathFileType	3	(X/Y/Z)	D:\minhoCalibration\240510\subject5_KPNP\preferred\preferred10.trc
DataRate	CameraRate	NumFrames	NumMarkers	Units	OrigDataRate	OrigDataStartFrame	OrigNumFrames
200.0	200.0	18	10	mm	200.0	200	121	
Frame#	Time	Left_Ankle_Outer1			Left_Ankle_Inner1			Left_Knee_Outer1			Left_Knee_Inner1			Left_Wrist1			Right_Wrist1			Right_Knee_Inner1			Right_Knee_Outer1			Right_Ankle_Inner1			Right_Ankle_Outer1			
		X1	Y1	Z1	X2	Y2	Z2	X3	Y3	Z3	X4	Y4	Z4	X5	Y5	Z5	X6	Y6	Z6	X7	Y7	Z7	X8	Y8	Z8	X9	Y9	Z9	X10	Y10	Z10	
200	0.99	-493.4115	76.316811	-614.73883	-526.5755	94.049477	-575.59161	-317.83023	524.73792	-578.89636	-359.82614	512.77911	-494.16	-445.45831	956.3476	-758.78552	-480.79767	1185.0369	-517.04553	-353.85495	995.06183	-71.637314	-354.65408	1081.5499	-97.176292	-603.15106	1008.5639	326.8092	-629.90906	1095.5875	289.30215
201	0.995	-493.55106	76.594582	-614.39801	-526.83063	94.033325	-575.24445	-318.67911	525.32245	-578.20215	-360.61642	513.4411	-493.46329	-446.18439	956.36115	-757.87805	-482.27032	1185.3098	-516.76727	-361.88306	997.30981	-71.20121	-362.9025	1083.6505	-96.688293	-561.66199	1019.1432	352.54504	-593.94678	1105.7985	317.81982
202	1	-493.59265	76.993301	-614.18085	-526.96899	94.168068	-575.00226	-319.5668	525.98254	-577.31677	-361.41483	513.97272	-492.66025	-446.1312	956.578	-756.99475	-484.12811	1186.5216	-515.18915	-370.9176	999.86414	-69.397141	-372.10562	1085.5649	-95.799728	-518.33398	1027.017	369.92554	-554.98926	1113.5947	340.50034
203	1.005	-493.76724	77.245293	-613.89069	-527.02417	94.10199	-575.49377	-320.39899	526.69873	-576.24225	-362.31665	514.40393	-491.72052	-446.23672	957.38373	-754.81158	-485.83334	1186.2305	-514.79828	-379.97617	1003.3439	-67.013489	-381.27798	1088.874	-94.73558	-473.5412	1032.8495	383.8739	-514.11774	1117.8507	356.75406
204	1.01	-493.83984	77.345566	-613.79358	-527.18616	93.862869	-575.77808	-321.54013	527.11749	-574.96442	-363.16403	514.65558	-490.6665	-446.03064	958.2876	-751.84021	-487.69528	1186.7714	-513.16461	-388.27719	1007.5158	-64.329849	-389.8248	1093.4207	-93.268166	-434.90732	1037.4153	389.53421	-475.97256	1120.1956	366.47934
205	1.015	-493.92386	77.493439	-613.64911	-527.47217	93.901443	-575.60803	-322.62756	527.54877	-573.51849	-364.41547	514.90912	-489.21765	-444.63541	959.29041	-749.23578	-489.4801	1187.1997	-511.05548	-393.49463	1012.5739	-62.209301	-394.89972	1099.3772	-91.861763	-414.25833	1036.2268	384.60999	-458.64291	1122.1523	364.08298
206	1.02	-493.97391	77.597031	-613.57703	-527.50934	93.734772	-575.79822	-324.0004	527.89081	-571.74615	-365.54318	514.94067	-487.55615	-443.39774	959.62323	-746.16266	-491.49051	1188.6075	-507.69986	-393.42734	1018.7285	-60.565384	-395.40906	1105.6222	-90.472511	-408.41583	1033.3727	382.69321	-451.54941	1120.8043	366.14807
207	1.025	-493.86215	77.674065	-613.62933	-527.64691	93.880341	-575.10956	-325.48196	528.25421	-569.4762	-367.39127	514.97217	-485.23495	-441.98657	960.09131	-742.23883	-493.85669	1189.051	-504.52524	-389.9422	1025.0332	-59.984608	-393.69879	1111.1777	-88.766373	-408.60617	1030.1854	384.90271	-452.1922	1117.7465	368.02066
208	1.03	-493.55945	77.889877	-613.62689	-527.25946	93.791405	-575.81079	-327.08551	528.37976	-566.43359	-369.02921	514.93311	-482.59464	-441.11462	960.50342	-737.93915	-495.92722	1188.7433	-502.94971	-387.1676	1029.2495	-60.111183	-392.50577	1114.7384	-87.958519	-410.21088	1028.7998	386.12665	-457.50409	1115.2969	369.95532
209	1.035	-493.13092	78.140244	-613.5769	-527.37952	93.747353	-576.06342	-328.0787	528.84747	-563.16455	-371.12106	514.77704	-479.64795	-439.64688	961.1817	-734.49829	-498.8114	1189.0098	-500.37546	-384.96255	1031.6193	-60.430923	-392.2876	1116.8408	-87.078354	-410.82397	1027.4752	386.36975	-463.25415	1111.1222	372.15549
210	1.04	-492.68002	78.488335	-613.59143	-527.09131	93.977737	-575.34979	-329.23859	529.18884	-559.28925	-373.48773	514.82269	-476.52936	-437.76877	962.02515	-731.57501	-502.6387	1189.1328	-497.00455	-383.97748	1033.7977	-60.296513	-392.86646	1118.1957	-85.723679	-413.58389	1024.8157	388.29593	-468.29529	1106.9684	374.21994
211	1.045	-492.21295	78.870407	-613.59857	-527.10803	93.614922	-576.30859	-330.53262	529.55536	-555.00079	-376.08273	514.82245	-473.3237	-435.41711	963.13196	-728.72974	-505.87534	1188.8984	-496.02182	-384.59698	1036.3665	-59.84201	-393.23425	1119.7114	-84.759369	-417.77301	1020.5276	387.46658	-471.8121	1103.6534	375.45502
212	1.05	-491.76196	79.195122	-613.45697	-527.27673	93.850334	-575.73663	-331.82101	530.18671	-550.78027	-379.2373	514.93451	-469.96808	-432.73938	963.76636	-726.91168	-509.85049	1189.1039	-494.19467	-386.93298	1038.5258	-58.750538	-394.55478	1120.7144	-84.01503	-422.97134	1015.7229	385.60098	-475.22876	1099.6901	376.05447
213	1.055	-491.4686	79.423714	-613.25201	-527.17151	93.485817	-576.02966	-333.43564	530.76819	-546.50354	-382.51599	515.05896	-466.94382	-431.39038	964.15601	-723.07245	-513.74182	1189.2837	-493.33945	-390.5762	1039.746	-57.054283	-396.96765	1121.5621	-82.976044	-425.80023	1011.1896	386.3739	-478.88177	1094.6943	376.82462
214	1.06	-491.17007	79.64045	-612.95764	-527.39508	93.768814	-575.59497	-335.14767	531.58636	-542.69629	-385.92117	515.24957	-464.10397	-429.02841	964.78949	-720.38068	-517.72668	1190.0616	-492.79193	-395.15027	1040.0216	-55.742676	-401.35919	1122.1903	-81.492302	-426.51422	1007.5325	386.10886	-482.36649	1089.4403	378.46857
215	1.065	-491.0675	79.841965	-612.7594	-527.43652	93.067276	-576.88812	-337.35883	532.16388	-538.91895	-389.94562	515.49652	-461.1853	-427.37677	964.88263	-717.14227	-521.61145	1191.2838	-491.89017	-399.74557	1039.9637	-55.102947	-407.052	1122.8411	-79.998978	-427.24442	1004.3554	387.39331	-485.25064	1084.4745	380.16339
216	1.07	-491.17493	79.903946	-612.44458	-527.98297	92.992332	-575.74554	-339.92709	532.63013	-535.42773	-393.6116	515.49194	-459.03491	-425.47592	964.72656	-714.47668	-524.66241	1191.5153	-492.8999	-403.87442	1039.7742	-54.809109	-414.31601	1123.2446	-78.483124	-428.07352	1000.978	388.23477	-488.10959	1079.4222	381.62741
217	1.075	-491.57779	79.925529	-611.93835	-528.35571	92.114639	-576.78094	-342.64258	532.92328	-532.15002	-397.63483	515.51465	-457.13538	-423.61877	964.5307	-711.54388	-527.49139	1192.2288	-493.27588	-407.16876	1039.5756	-54.337299	-422.43234	1123.238	-77.040131	-428.64212	997.39459	389.03528	-490.85062	1074.0123	382.92746
